<?xml version="1.0" encoding="UTF-8" standalone="no"?>
<svg
   xmlns:dc="http://purl.org/dc/elements/1.1/"
   xmlns:cc="http://creativecommons.org/ns#"
   xmlns:rdf="http://www.w3.org/1999/02/22-rdf-syntax-ns#"
   xmlns:svg="http://www.w3.org/2000/svg"
   xmlns="http://www.w3.org/2000/svg"
   xmlns:sodipodi="http://sodipodi.sourceforge.net/DTD/sodipodi-0.dtd"
   xmlns:inkscape="http://www.inkscape.org/namespaces/inkscape"
   version="1.1"
   id="svg2"
   viewBox="0 0 1275.5904 141.73228"
   height="40mm"
   width="360mm"
   sodipodi:docname="logo_puretext_de.svg"
   inkscape:version="1.0.1 (3bc2e813f5, 2020-09-07)">
  <sodipodi:namedview
     pagecolor="#ffffff"
     bordercolor="#666666"
     borderopacity="1"
     objecttolerance="10"
     gridtolerance="10"
     guidetolerance="10"
     inkscape:pageopacity="0"
     inkscape:pageshadow="2"
     inkscape:window-width="2520"
     inkscape:window-height="1374"
     id="namedview25"
     showgrid="false"
     inkscape:zoom="1.254566"
     inkscape:cx="648.44452"
     inkscape:cy="75.590551"
     inkscape:window-x="20"
     inkscape:window-y="1486"
     inkscape:window-maximized="0"
     inkscape:current-layer="svg2" />
  <defs
     id="defs4" />
  <metadata
     id="metadata7">
    <rdf:RDF>
      <cc:Work
         rdf:about="">
        <dc:format>image/svg+xml</dc:format>
        <dc:type
           rdf:resource="http://purl.org/dc/dcmitype/StillImage" />
        <dc:title></dc:title>
      </cc:Work>
    </rdf:RDF>
  </metadata>
  <g
     aria-label="expertanalytics.de"
     id="text852"
     style="font-style:normal;font-variant:normal;font-weight:normal;font-stretch:normal;font-size:136.094px;line-height:1.25;font-family:'Ubuntu Mono derivative Powerline';-inkscape-font-specification:'Ubuntu Mono derivative Powerline';letter-spacing:0px;word-spacing:0px;fill:#3771c8;fill-opacity:1;stroke:none;stroke-width:3.40236">
    <path
       d="m 58.136404,43.51734 q 12.792836,0 19.733629,8.029546 6.940794,7.893451 6.940794,24.088637 v 3.946726 H 39.627621 q 0.68047,9.798767 6.396418,14.970339 5.852041,5.035478 16.331279,5.035478 5.988136,0 10.207049,-0.952658 4.218914,-0.952658 6.396418,-2.04141 l 1.497034,9.526582 q -2.04141,1.08875 -7.349076,2.3136 -5.307665,1.22484 -11.976271,1.22484 -8.16564,0 -14.425963,-2.44969 -6.12423,-2.58579 -10.20705,-6.94079 -4.08282,-4.355012 -6.12423,-10.343148 -2.04141,-6.12423 -2.04141,-13.201117 0,-8.437828 2.585786,-14.698152 2.585786,-6.260323 6.8047,-10.343143 4.218914,-4.08282 9.52658,-6.12423 5.307665,-2.04141 10.887519,-2.04141 z m 15.242527,26.946611 q 0,-8.029546 -4.218913,-12.656742 -4.218914,-4.763289 -11.159708,-4.763289 -3.946726,0 -7.212982,1.497034 -3.130161,1.497034 -5.443759,3.946725 -2.313598,2.449692 -3.674538,5.579854 -1.36094,3.130162 -1.769222,6.396418 z"
       style="font-style:normal;font-variant:normal;font-weight:normal;font-stretch:normal;font-family:'Ubuntu Mono derivative Powerline';-inkscape-font-specification:'Ubuntu Mono derivative Powerline';fill:#3771c8;fill-opacity:1;stroke-width:3.40236"
       id="path893" />
    <path
       d="m 142.65052,108.16199 q -1.36094,-2.72188 -3.40235,-5.98814 -1.90532,-3.266254 -4.21892,-6.668604 -2.3136,-3.538444 -4.89938,-6.940794 -2.44969,-3.40235 -4.89939,-6.396418 -2.44969,3.130162 -5.17157,6.532512 -2.72188,3.40235 -5.30766,6.940794 -2.4497,3.40235 -4.6272,6.66861 -2.1775,3.26625 -3.67454,5.85204 H 94.881523 q 4.491102,-8.165642 10.887517,-16.739564 6.53251,-8.710016 12.79284,-16.467373 L 95.834181,45.014374 h 12.656739 l 17.01175,22.047227 15.65081,-22.047227 h 11.97627 l -20.82238,29.260209 q 6.12423,8.029545 12.24846,16.739561 6.26032,8.710016 10.61533,17.147846 z"
       style="font-style:normal;font-variant:normal;font-weight:normal;font-stretch:normal;font-family:'Ubuntu Mono derivative Powerline';-inkscape-font-specification:'Ubuntu Mono derivative Powerline';fill:#3771c8;fill-opacity:1;stroke-width:3.40236"
       id="path895" />
    <path
       d="m 210.01678,76.724275 q 0,-11.023614 -5.17157,-17.01175 -5.17157,-6.124229 -13.4733,-6.124229 -4.6272,0 -7.34908,0.408282 -2.58579,0.408282 -4.08282,0.952658 v 39.87554 q 1.90532,1.769222 5.57985,3.266256 3.67454,1.497034 7.62127,1.497034 4.4911,0 7.62126,-1.769222 3.26626,-1.769222 5.30767,-4.76329 2.04141,-3.130162 2.99406,-7.212982 0.95266,-4.218914 0.95266,-9.118297 z m 11.56799,0 q 0,7.212981 -1.90531,13.337211 -1.76923,5.988136 -5.30767,10.343144 -3.40235,4.35501 -8.43783,6.8047 -5.03547,2.44969 -11.43189,2.44969 -5.03548,0 -8.84611,-1.22484 -3.81063,-1.22485 -5.71595,-2.72188 v 24.9052 h -11.2958 V 46.91969 q 3.67454,-1.088752 9.39048,-2.177504 5.85205,-1.088752 13.33722,-1.088752 6.8047,0 12.38455,2.313598 5.57985,2.313598 9.52658,6.668606 3.94672,4.218914 6.12423,10.343143 2.1775,6.12423 2.1775,13.745494 z"
       style="font-style:normal;font-variant:normal;font-weight:normal;font-stretch:normal;font-family:'Ubuntu Mono derivative Powerline';-inkscape-font-specification:'Ubuntu Mono derivative Powerline';fill:#3771c8;fill-opacity:1;stroke-width:3.40236"
       id="path897" />
    <path
       d="m 262.27662,43.51734 q 12.79283,0 19.73363,8.029546 6.94079,7.893451 6.94079,24.088637 v 3.946726 h -45.18321 q 0.68047,9.798767 6.39642,14.970339 5.85204,5.035478 16.33128,5.035478 5.98814,0 10.20705,-0.952658 4.21891,-0.952658 6.39642,-2.04141 l 1.49703,9.526582 q -2.04141,1.08875 -7.34907,2.3136 -5.30767,1.22484 -11.97628,1.22484 -8.16563,0 -14.42596,-2.44969 -6.12423,-2.58579 -10.20705,-6.94079 -4.08282,-4.355012 -6.12423,-10.343148 -2.04141,-6.12423 -2.04141,-13.201117 0,-8.437828 2.58579,-14.698152 2.58578,-6.260323 6.8047,-10.343143 4.21891,-4.08282 9.52658,-6.12423 5.30766,-2.04141 10.88752,-2.04141 z m 15.24252,26.946611 q 0,-8.029546 -4.21891,-12.656742 -4.21891,-4.763289 -11.15971,-4.763289 -3.94672,0 -7.21298,1.497034 -3.13016,1.497034 -5.44376,3.946725 -2.3136,2.449692 -3.67454,5.579854 -1.36094,3.130162 -1.76922,6.396418 z"
       style="font-style:normal;font-variant:normal;font-weight:normal;font-stretch:normal;font-family:'Ubuntu Mono derivative Powerline';-inkscape-font-specification:'Ubuntu Mono derivative Powerline';fill:#3771c8;fill-opacity:1;stroke-width:3.40236"
       id="path899" />
    <path
       d="M 309.63707,108.16199 V 48.416724 q 13.88159,-4.76329 28.03536,-4.76329 4.35501,0 8.30173,0.408282 3.94673,0.272188 8.71002,1.36094 l -2.04141,9.934862 q -4.35501,-1.224846 -7.75736,-1.497034 -3.26625,-0.408282 -7.21298,-0.408282 -8.30173,0 -16.87565,2.313598 v 52.39619 z"
       style="font-style:normal;font-variant:normal;font-weight:normal;font-stretch:normal;font-family:'Ubuntu Mono derivative Powerline';-inkscape-font-specification:'Ubuntu Mono derivative Powerline';fill:#3771c8;fill-opacity:1;stroke-width:3.40236"
       id="path901" />
    <path
       d="m 396.1926,45.014374 h 26.67443 V 54.40486 H 396.1926 v 29.396302 q 0,4.76329 0.68047,7.757358 0.68047,2.994068 2.17751,4.899384 1.63313,1.769222 4.08282,2.449692 2.44969,0.68047 5.98813,0.68047 4.89939,0 7.89345,-0.816564 2.99407,-0.816564 5.71595,-2.177504 l 1.63313,9.526582 q -1.90532,0.81656 -6.12423,2.1775 -4.08282,1.36094 -10.20705,1.36094 -7.07689,0 -11.56799,-1.63313 -4.4911,-1.63312 -7.07689,-4.89938 -2.44969,-3.266256 -3.40235,-8.029546 Q 385.0329,90.19758 385.0329,83.801162 V 54.40486 H 371.69568 V 45.014374 H 385.0329 V 27.322155 l 11.1597,-1.905316 z"
       style="font-style:normal;font-variant:normal;font-weight:normal;font-stretch:normal;font-family:'Ubuntu Mono derivative Powerline';-inkscape-font-specification:'Ubuntu Mono derivative Powerline';fill:#3771c8;fill-opacity:1;stroke-width:3.40236"
       id="path903" />
    <path
       d="m 465.32808,96.185716 q 2.72188,0 5.30766,0 2.58579,-0.136094 4.49111,-0.408282 V 81.079282 q -1.63313,-0.272188 -3.94673,-0.408282 -2.3136,-0.272188 -4.21891,-0.272188 -2.58579,0 -5.03548,0.408282 -2.44969,0.272188 -4.35501,1.088752 -1.76922,0.816564 -2.85797,2.313598 -1.08876,1.497034 -1.08876,3.946726 0,4.355008 3.26626,6.260324 3.26626,1.769222 8.43783,1.769222 z m -1.49704,-53.621034 q 7.89346,0 13.06503,1.905316 5.30766,1.769222 8.43783,5.171572 3.13016,3.266256 4.4911,8.165639 1.36094,4.76329 1.36094,10.751426 v 38.106315 q -3.67454,0.81657 -10.88752,1.90532 -7.21298,1.08875 -16.19519,1.08875 -6.12423,0 -11.15971,-1.08875 -4.89938,-1.08875 -8.43782,-3.53844 -3.53845,-2.58579 -5.44376,-6.532516 -1.90532,-4.08282 -1.90532,-9.934862 0,-5.579854 2.17751,-9.390485 2.1775,-3.810632 5.85204,-6.12423 3.67453,-2.313598 8.43782,-3.266256 4.76329,-1.088752 9.93487,-1.088752 6.53251,0 11.56799,1.088752 v -2.04141 q 0,-4.76329 -2.99407,-7.893452 -2.99407,-3.266255 -10.34315,-3.266255 -4.76329,0 -9.25439,0.680469 -4.35501,0.68047 -7.07688,1.633128 l -2.3136,-13.473305 q 3.13016,-1.088752 8.84611,-1.905316 5.71594,-0.952658 11.84017,-0.952658 z"
       style="font-style:normal;font-variant:normal;font-weight:bold;font-stretch:normal;font-family:'Ubuntu Mono derivative Powerline';-inkscape-font-specification:'Ubuntu Mono derivative Powerline Bold';fill:#214478;fill-opacity:1;stroke-width:3.40236"
       id="path905" />
    <path
       d="m 507.78913,46.23922 q 4.4911,-1.224846 11.02361,-2.313598 6.66861,-1.088752 14.42597,-1.088752 7.62126,0 12.65674,2.177504 5.03548,2.04141 7.89345,5.988136 2.99407,3.810632 4.21891,9.254391 1.22485,5.307666 1.22485,11.840178 V 108.16199 H 542.4931 V 74.274583 q 0,-8.982204 -2.04141,-12.92893 -2.04141,-3.946726 -8.30174,-3.946726 -1.90531,0 -3.81063,0.136094 -1.76922,0.136094 -3.81063,0.408282 v 50.218687 h -16.73956 z"
       style="font-style:normal;font-variant:normal;font-weight:bold;font-stretch:normal;font-family:'Ubuntu Mono derivative Powerline';-inkscape-font-specification:'Ubuntu Mono derivative Powerline Bold';fill:#214478;fill-opacity:1;stroke-width:3.40236"
       id="path907" />
    <path
       d="m 601.42155,96.185716 q 2.72188,0 5.30767,0 2.58579,-0.136094 4.4911,-0.408282 V 81.079282 q -1.63313,-0.272188 -3.94672,-0.408282 -2.3136,-0.272188 -4.21892,-0.272188 -2.58578,0 -5.03548,0.408282 -2.44969,0.272188 -4.355,1.088752 -1.76923,0.816564 -2.85798,2.313598 -1.08875,1.497034 -1.08875,3.946726 0,4.355008 3.26626,6.260324 3.26625,1.769222 8.43782,1.769222 z m -1.49703,-53.621034 q 7.89345,0 13.06502,1.905316 5.30767,1.769222 8.43783,5.171572 3.13016,3.266256 4.4911,8.165639 1.36094,4.76329 1.36094,10.751426 v 38.106315 q -3.67454,0.81657 -10.88752,1.90532 -7.21298,1.08875 -16.19518,1.08875 -6.12423,0 -11.15971,-1.08875 -4.89938,-1.08875 -8.43783,-3.53844 -3.53844,-2.58579 -5.44376,-6.532516 -1.90531,-4.08282 -1.90531,-9.934862 0,-5.579854 2.1775,-9.390485 2.1775,-3.810632 5.85204,-6.12423 3.67454,-2.313598 8.43783,-3.266256 4.76329,-1.088752 9.93486,-1.088752 6.53251,0 11.56799,1.088752 v -2.04141 q 0,-4.76329 -2.99407,-7.893452 -2.99406,-3.266255 -10.34314,-3.266255 -4.76329,0 -9.25439,0.680469 -4.35501,0.68047 -7.07689,1.633128 l -2.3136,-13.473305 q 3.13016,-1.088752 8.84611,-1.905316 5.71595,-0.952658 11.84018,-0.952658 z"
       style="font-style:normal;font-variant:normal;font-weight:bold;font-stretch:normal;font-family:'Ubuntu Mono derivative Powerline';-inkscape-font-specification:'Ubuntu Mono derivative Powerline Bold';fill:#214478;fill-opacity:1;stroke-width:3.40236"
       id="path909" />
    <path
       d="m 698.86461,105.44011 q -0.40828,0.27219 -1.90532,0.95266 -1.36094,0.68047 -3.67453,1.49703 -2.3136,0.68047 -5.71595,1.22485 -3.26626,0.54437 -7.48517,0.54437 -11.56799,0 -16.87566,-6.8047 -5.30766,-6.940792 -5.30766,-20.14191 V 28.410907 H 640.2081 V 14.529319 h 34.43178 v 69.407937 q 0,6.532512 2.58578,8.84611 2.58579,2.313598 6.53252,2.313598 5.03547,0 8.43782,-1.36094 3.40235,-1.36094 4.49111,-1.769222 z"
       style="font-style:normal;font-variant:normal;font-weight:bold;font-stretch:normal;font-family:'Ubuntu Mono derivative Powerline';-inkscape-font-specification:'Ubuntu Mono derivative Powerline Bold';fill:#214478;fill-opacity:1;stroke-width:3.40236"
       id="path911" />
    <path
       d="m 767.59183,44.19781 q -2.58578,8.982204 -5.03548,17.692219 -2.31359,8.573922 -4.89938,16.875656 -2.58579,8.165639 -5.57985,16.059091 -2.85798,7.893454 -6.26033,15.378624 -2.58578,5.44376 -5.17157,9.39048 -2.44969,3.94673 -5.57985,6.39642 -2.99407,2.58579 -6.8047,3.81063 -3.67454,1.22485 -8.71002,1.22485 -4.21891,0 -7.75736,-0.68047 -3.40235,-0.68047 -5.71594,-1.76922 l 3.13016,-14.01768 q 2.72188,1.22484 4.76329,1.63312 2.1775,0.54438 4.62719,0.54438 4.89939,0 7.89346,-3.26626 2.99406,-3.26625 4.76329,-7.75735 Q 725.2666,93.736024 719.27846,78.357403 713.29033,62.842687 708.39094,44.19781 h 17.42004 q 1.22484,5.035478 2.72188,10.751426 1.63312,5.715947 3.40235,11.431895 1.76922,5.715948 3.67453,11.295802 2.04141,5.443759 4.08282,10.207049 1.36094,-4.76329 2.85798,-10.207049 1.49703,-5.579854 2.85797,-11.159708 1.36094,-5.715948 2.58579,-11.431895 1.36094,-5.715948 2.44969,-10.88752 z"
       style="font-style:normal;font-variant:normal;font-weight:bold;font-stretch:normal;font-family:'Ubuntu Mono derivative Powerline';-inkscape-font-specification:'Ubuntu Mono derivative Powerline Bold';fill:#214478;fill-opacity:1;stroke-width:3.40236"
       id="path913" />
    <path
       d="M 790.8636,58.079397 H 776.30154 V 44.19781 H 790.8636 V 28.138719 l 16.73956,-2.72188 V 44.19781 h 26.81052 v 13.881587 h -26.81052 v 25.857859 q 0,3.538444 0.68047,5.715948 0.68047,2.177504 1.90532,3.40235 1.22484,1.224846 2.99406,1.633128 1.76923,0.408282 3.94673,0.408282 2.3136,0 4.21891,-0.136094 2.04141,-0.136094 3.81064,-0.408282 1.90531,-0.408282 3.81063,-1.088752 2.04141,-0.68047 4.35501,-1.769222 l 2.31359,14.425966 q -4.62719,1.90531 -10.07095,2.72188 -5.30767,0.81656 -10.34315,0.81656 -5.85204,0 -10.34314,-0.95266 -4.4911,-0.95265 -7.62126,-3.67453 -3.13016,-2.72188 -4.76329,-7.621268 -1.63313,-5.035478 -1.63313,-13.065024 z"
       style="font-style:normal;font-variant:normal;font-weight:bold;font-stretch:normal;font-family:'Ubuntu Mono derivative Powerline';-inkscape-font-specification:'Ubuntu Mono derivative Powerline Bold';fill:#214478;fill-opacity:1;stroke-width:3.40236"
       id="path915" />
    <path
       d="m 878.09961,25.825121 q 0,4.899384 -3.13017,7.757358 -3.13016,2.857973 -7.48517,2.857973 -4.355,0 -7.48517,-2.857973 -2.99406,-2.857974 -2.99406,-7.757358 0,-5.035478 2.99406,-7.893452 3.13017,-2.857974 7.48517,-2.857974 4.35501,0 7.48517,2.857974 3.13017,2.857974 3.13017,7.893452 z m 24.9052,79.614989 q -5.17157,2.44969 -9.79877,3.26625 -4.4911,0.95266 -8.30173,0.95266 -6.53252,0 -11.02362,-1.90531 -4.35501,-1.90532 -7.07689,-5.44376 -2.58578,-3.674542 -3.67453,-8.846114 -1.08876,-5.171572 -1.08876,-11.840178 V 58.079397 H 844.3483 V 44.19781 h 34.43178 v 39.603352 q 0,5.715948 2.04141,8.573922 2.1775,2.72188 7.07688,2.72188 2.3136,0 5.57986,-0.544376 3.26625,-0.68047 7.34907,-2.585786 z"
       style="font-style:normal;font-variant:normal;font-weight:bold;font-stretch:normal;font-family:'Ubuntu Mono derivative Powerline';-inkscape-font-specification:'Ubuntu Mono derivative Powerline Bold';fill:#214478;fill-opacity:1;stroke-width:3.40236"
       id="path917" />
    <path
       d="m 913.4838,76.179899 q 0,-6.940794 2.1775,-13.065024 2.17751,-6.124229 6.66861,-10.615331 4.4911,-4.627196 11.2958,-7.212982 6.9408,-2.72188 16.46737,-2.72188 5.71595,0 10.34315,0.816564 4.62719,0.816564 9.39048,2.72188 l -3.67453,13.473305 q -2.72188,-0.952658 -6.12423,-1.633128 -3.26626,-0.816563 -8.43783,-0.816563 -5.98814,0 -10.07096,1.497033 -3.94672,1.36094 -6.39641,3.946726 -2.4497,2.449692 -3.53845,5.988136 -1.08875,3.538444 -1.08875,7.621264 0,8.846109 4.89938,13.881587 5.03548,5.035478 17.01175,5.035478 3.94673,0 8.16564,-0.544376 4.35501,-0.544376 7.89345,-1.769222 l 2.4497,13.745494 q -3.53845,1.36094 -8.57393,2.1775 -5.03547,0.95266 -11.84017,0.95266 -9.79877,0 -16.87566,-2.58578 -6.94079,-2.58579 -11.43189,-7.076892 -4.49111,-4.491102 -6.66861,-10.615332 -2.04141,-6.12423 -2.04141,-13.201117 z"
       style="font-style:normal;font-variant:normal;font-weight:bold;font-stretch:normal;font-family:'Ubuntu Mono derivative Powerline';-inkscape-font-specification:'Ubuntu Mono derivative Powerline Bold';fill:#214478;fill-opacity:1;stroke-width:3.40236"
       id="path919" />
    <path
       d="m 1006.5718,95.505246 q 6.1242,0 9.3905,-0.816564 3.2662,-0.952658 3.2662,-3.674538 0,-1.769222 -1.0887,-2.994068 -0.9527,-1.224846 -2.858,-2.04141 -1.7692,-0.952658 -4.2189,-1.769222 -2.3136,-0.816564 -4.8994,-1.633128 -3.6745,-1.088752 -7.48516,-2.449691 -3.81064,-1.497034 -6.9408,-3.674538 -3.13016,-2.177504 -5.17157,-5.44376 -2.04141,-3.40235 -2.04141,-8.437828 0,-4.08282 1.49703,-7.621263 1.63313,-3.674538 4.89939,-6.396418 3.40235,-2.857974 8.57392,-4.355008 5.1716,-1.633128 12.3846,-1.633128 6.2603,0 11.5679,0.952658 5.4438,0.952658 9.3905,2.72188 l -2.5858,14.153775 q -2.3136,-0.68047 -7.2129,-2.177504 -4.8994,-1.633127 -11.0237,-1.633127 -6.3964,0 -8.71,1.633127 -2.1775,1.497034 -2.1775,3.266256 0,1.497034 0.9527,2.72188 1.0887,1.088752 2.7219,2.04141 1.7692,0.952658 3.9467,1.905316 2.3136,0.816564 4.8994,1.633128 3.6745,1.224846 7.6212,2.72188 3.9468,1.497034 7.0769,3.810632 3.2663,2.177504 5.3077,5.715947 2.0414,3.40235 2.0414,8.437828 0,3.946726 -1.497,7.48517 -1.4971,3.538442 -5.0355,6.124232 -3.4024,2.58578 -8.9822,4.08282 -5.5799,1.49703 -13.7455,1.49703 -8.30174,0 -14.15378,-1.90531 -5.85204,-1.90532 -9.39049,-3.40235 l 2.58579,-14.017686 q 4.76329,1.905316 10.07095,3.538444 5.44373,1.633128 11.02363,1.633128 z"
       style="font-style:normal;font-variant:normal;font-weight:bold;font-stretch:normal;font-family:'Ubuntu Mono derivative Powerline';-inkscape-font-specification:'Ubuntu Mono derivative Powerline Bold';fill:#214478;fill-opacity:1;stroke-width:3.40236"
       id="path921" />
    <path
       d="m 1087.6836,99.451972 q 0,4.082818 -2.7219,7.212978 -2.7219,3.13017 -7.213,3.13017 -4.6272,0 -7.3491,-3.13017 -2.7219,-3.13016 -2.7219,-7.212978 0,-4.218914 2.7219,-7.349076 2.7219,-3.130162 7.3491,-3.130162 4.4911,0 7.213,3.130162 2.7219,3.130162 2.7219,7.349076 z"
       style="font-style:normal;font-variant:normal;font-weight:normal;font-stretch:normal;font-family:'Ubuntu Mono derivative Powerline';-inkscape-font-specification:'Ubuntu Mono derivative Powerline';fill:#3771c8;fill-opacity:1;stroke-width:3.40236"
       id="path923" />
    <path
       d="m 1158.7244,58.351585 q -1.9053,-1.769221 -5.5799,-3.266255 -3.6745,-1.633128 -7.6212,-1.633128 -4.4911,0 -7.7574,1.769222 -3.1302,1.769222 -5.1716,4.899383 -2.0414,2.994068 -2.994,7.349076 -0.9527,4.218914 -0.9527,9.118298 0,11.023613 5.1716,17.011749 5.1716,5.988136 13.4733,5.988136 4.2189,0 7.0769,-0.408282 2.994,-0.408282 4.355,-0.816564 z m 0,-42.59742 11.2958,-1.905316 v 92.543921 q -3.6746,1.08875 -9.3905,2.1775 -5.7159,1.08875 -13.3372,1.08875 -6.8047,0 -12.3846,-2.3136 -5.5798,-2.31359 -9.5265,-6.53251 -3.9468,-4.355006 -6.1243,-10.479236 -2.1775,-6.12423 -2.1775,-13.745493 0,-7.349076 1.7692,-13.337212 1.9054,-6.124229 5.4438,-10.479237 3.5384,-4.355008 8.4378,-6.8047 5.0355,-2.449692 11.4319,-2.449692 5.0355,0 8.8461,1.224846 3.8107,1.224846 5.716,2.585786 z"
       style="font-style:normal;font-variant:normal;font-weight:normal;font-stretch:normal;font-family:'Ubuntu Mono derivative Powerline';-inkscape-font-specification:'Ubuntu Mono derivative Powerline';fill:#3771c8;fill-opacity:1;stroke-width:3.40236"
       id="path925" />
    <path
       d="m 1214.931,43.51734 q 12.7928,0 19.7336,8.029546 6.9408,7.893451 6.9408,24.088637 v 3.946726 h -45.1832 q 0.6804,9.798767 6.3964,14.970339 5.852,5.035478 16.3313,5.035478 5.9881,0 10.207,-0.952658 4.2189,-0.952658 6.3964,-2.04141 l 1.4971,9.526582 q -2.0414,1.08875 -7.3491,2.3136 -5.3077,1.22484 -11.9763,1.22484 -8.1656,0 -14.4259,-2.44969 -6.1243,-2.58579 -10.2071,-6.94079 -4.0828,-4.355012 -6.1242,-10.343148 -2.0414,-6.12423 -2.0414,-13.201117 0,-8.437828 2.5858,-14.698152 2.5857,-6.260323 6.8047,-10.343143 4.2189,-4.08282 9.5265,-6.12423 5.3077,-2.04141 10.8876,-2.04141 z m 15.2425,26.946611 q 0,-8.029546 -4.2189,-12.656742 -4.2189,-4.763289 -11.1597,-4.763289 -3.9468,0 -7.213,1.497034 -3.1302,1.497034 -5.4438,3.946725 -2.3136,2.449692 -3.6745,5.579854 -1.361,3.130162 -1.7692,6.396418 z"
       style="font-style:normal;font-variant:normal;font-weight:normal;font-stretch:normal;font-family:'Ubuntu Mono derivative Powerline';-inkscape-font-specification:'Ubuntu Mono derivative Powerline';fill:#3771c8;fill-opacity:1;stroke-width:3.40236"
       id="path927" />
  </g>
</svg>
