<?xml version="1.0" encoding="UTF-8" standalone="no"?>
<svg
   xmlns:dc="http://purl.org/dc/elements/1.1/"
   xmlns:cc="http://creativecommons.org/ns#"
   xmlns:rdf="http://www.w3.org/1999/02/22-rdf-syntax-ns#"
   xmlns:svg="http://www.w3.org/2000/svg"
   xmlns="http://www.w3.org/2000/svg"
   version="1.1"
   id="svg2"
   viewBox="0 0 1275.5904 141.73228"
   height="40mm"
   width="360mm">
  <defs
     id="defs4" />
  <metadata
     id="metadata7">
    <rdf:RDF>
      <cc:Work
         rdf:about="">
        <dc:format>image/svg+xml</dc:format>
        <dc:type
           rdf:resource="http://purl.org/dc/dcmitype/StillImage" />
        <dc:title></dc:title>
      </cc:Work>
    </rdf:RDF>
  </metadata>
  <g
     transform="translate(0,-910.62997)"
     id="layer1">
    <g
       id="flowRoot4258-2"
       style="font-style:normal;font-variant:normal;font-weight:bold;font-stretch:normal;font-size:43.49728012px;line-height:125%;font-family:'Ubuntu Mono';-inkscape-font-specification:'Ubuntu Mono Bold';letter-spacing:0px;word-spacing:0px;fill:#2c5aa0;fill-opacity:1;stroke:none;stroke-width:1px;stroke-linecap:butt;stroke-linejoin:miter;stroke-opacity:1"
       transform="translate(-116.70711,399.02939)">
      <path
         id="path4145"
         style="font-style:normal;font-variant:normal;font-weight:normal;font-stretch:normal;font-family:'Ubuntu Mono';-inkscape-font-specification:'Ubuntu Mono';fill:#87aade"
         d="m 174.9517,554.25108 q 12.77733,0 19.70971,8.01981 6.93238,7.88388 6.93238,24.05943 l 0,3.94194 -45.12843,0 q 0.67965,9.78689 6.38866,14.95219 5.84495,5.02938 16.31148,5.02938 5.98088,0 10.19468,-0.95151 4.2138,-0.9515 6.38866,-2.03893 l 1.49522,9.51503 q -2.03893,1.08743 -7.34016,2.31079 -5.30124,1.22336 -11.96176,1.22336 -8.15574,0 -14.40847,-2.44672 -6.11681,-2.58265 -10.19468,-6.93238 -4.07787,-4.34973 -6.1168,-10.3306 -2.03894,-6.11681 -2.03894,-13.18512 0,-8.42759 2.58265,-14.68033 2.58266,-6.25273 6.79645,-10.3306 4.2138,-4.07787 9.51503,-6.11681 5.30124,-2.03893 10.87432,-2.03893 z m 15.22405,26.91394 q 0,-8.01981 -4.2138,-12.6414 -4.21379,-4.75751 -11.14617,-4.75751 -3.94195,0 -7.20424,1.49522 -3.12637,1.49522 -5.43716,3.94194 -2.31079,2.44672 -3.67008,5.57309 -1.35929,3.12636 -1.76708,6.38866 l 33.43853,0 z" />
      <path
         id="path4147"
         style="font-style:normal;font-variant:normal;font-weight:normal;font-stretch:normal;font-family:'Ubuntu Mono';-inkscape-font-specification:'Ubuntu Mono';fill:#87aade"
         d="m 259.36361,618.81735 q -1.35929,-2.71858 -3.39822,-5.98087 -1.90301,-3.2623 -4.2138,-6.66052 -2.31079,-3.53416 -4.89344,-6.93238 -2.44673,-3.39823 -4.89345,-6.38867 -2.44672,3.12637 -5.1653,6.5246 -2.71858,3.39822 -5.30123,6.93238 -2.44672,3.39822 -4.62159,6.66052 -2.17486,3.26229 -3.67008,5.84494 l -11.55396,0 q 4.48565,-8.15574 10.87432,-16.71926 6.52459,-8.69946 12.77732,-16.44741 l -22.70014,-29.90438 12.6414,0 16.99112,22.0205 15.63184,-22.0205 11.96175,0 -20.79714,29.22473 q 6.11681,8.01981 12.23361,16.71927 6.25273,8.69946 10.60246,17.12705 l -12.50547,0 z" />
      <path
         id="path4149"
         style="font-style:normal;font-variant:normal;font-weight:normal;font-stretch:normal;font-family:'Ubuntu Mono';-inkscape-font-specification:'Ubuntu Mono';fill:#87aade"
         d="m 326.64847,587.41775 q 0,-11.01024 -5.1653,-16.99112 -5.1653,-6.11681 -13.45697,-6.11681 -4.62159,0 -7.34017,0.40779 -2.58265,0.40779 -4.07787,0.9515 l 0,39.8272 q 1.90301,1.76708 5.57309,3.2623 3.67008,1.49522 7.61202,1.49522 4.48566,0 7.61203,-1.76708 3.26229,-1.76708 5.30123,-4.75752 2.03893,-3.12636 2.99044,-7.20423 0.9515,-4.2138 0.9515,-9.10725 z m 11.55396,0 q 0,7.20424 -1.903,13.32105 -1.76708,5.98087 -5.30123,10.3306 -3.39823,4.34973 -8.4276,6.79645 -5.02937,2.44672 -11.41804,2.44672 -5.02937,0 -8.83538,-1.22336 -3.80601,-1.22336 -5.70902,-2.71858 l 0,24.87501 -11.28211,0 0,-83.59634 q 3.67009,-1.08743 9.3791,-2.17486 5.84495,-1.08743 13.32105,-1.08743 6.79645,0 12.36954,2.31079 5.57308,2.31079 9.51503,6.66052 3.94194,4.2138 6.1168,10.33061 2.17486,6.1168 2.17486,13.72882 z" />
      <path
         id="path4151"
         style="font-style:normal;font-variant:normal;font-weight:normal;font-stretch:normal;font-family:'Ubuntu Mono';-inkscape-font-specification:'Ubuntu Mono';fill:#87aade"
         d="m 378.8452,554.25108 q 12.77732,0 19.7097,8.01981 6.93238,7.88388 6.93238,24.05943 l 0,3.94194 -45.12843,0 q 0.67965,9.78689 6.38867,14.95219 5.84494,5.02938 16.31148,5.02938 5.98087,0 10.19467,-0.95151 4.2138,-0.9515 6.38867,-2.03893 l 1.49521,9.51503 q -2.03893,1.08743 -7.34016,2.31079 -5.30123,1.22336 -11.96175,1.22336 -8.15574,0 -14.40848,-2.44672 -6.1168,-2.58265 -10.19467,-6.93238 -4.07787,-4.34973 -6.11681,-10.3306 -2.03893,-6.11681 -2.03893,-13.18512 0,-8.42759 2.58265,-14.68033 2.58265,-6.25273 6.79645,-10.3306 4.2138,-4.07787 9.51503,-6.11681 5.30123,-2.03893 10.87432,-2.03893 z m 15.22405,26.91394 q 0,-8.01981 -4.2138,-12.6414 -4.2138,-4.75751 -11.14618,-4.75751 -3.94194,0 -7.20424,1.49522 -3.12636,1.49522 -5.43716,3.94194 -2.31079,2.44672 -3.67008,5.57309 -1.35929,3.12636 -1.76708,6.38866 l 33.43854,0 z" />
      <path
         id="path4153"
         style="font-style:normal;font-variant:normal;font-weight:normal;font-stretch:normal;font-family:'Ubuntu Mono';-inkscape-font-specification:'Ubuntu Mono';fill:#87aade"
         d="m 426.1485,618.81735 0,-59.67283 q 13.86476,-4.75751 28.00137,-4.75751 4.34973,0 8.29167,0.40778 3.94194,0.27186 8.69946,1.35929 l -2.03894,9.92282 q -4.34973,-1.22336 -7.74795,-1.49522 -3.2623,-0.40778 -7.20424,-0.40778 -8.29167,0 -16.85519,2.31079 l 0,52.33266 -11.14618,0 z" />
      <path
         id="path4155"
         style="font-style:normal;font-variant:normal;font-weight:normal;font-stretch:normal;font-family:'Ubuntu Mono';-inkscape-font-specification:'Ubuntu Mono';fill:#87aade"
         d="m 512.59935,555.7463 26.64208,0 0,9.3791 -26.64208,0 0,29.36066 q 0,4.75752 0.67965,7.74796 0.67964,2.99043 2.17486,4.89344 1.63115,1.76708 4.07787,2.44672 2.44672,0.67965 5.98088,0.67965 4.89344,0 7.88388,-0.81558 2.99044,-0.81557 5.70902,-2.17486 l 1.63114,9.51503 q -1.903,0.81557 -6.1168,2.17486 -4.07787,1.35929 -10.19468,1.35929 -7.0683,0 -11.55396,-1.63114 -4.48566,-1.63115 -7.06831,-4.89345 -2.44672,-3.2623 -3.39822,-8.01981 -0.95151,-4.89344 -0.95151,-11.28211 l 0,-29.36066 -13.32104,0 0,-9.3791 13.32104,0 0,-17.67077 11.14618,-1.90301 0,19.57378 z" />
      <path
         id="path4157"
         style="fill:#3771c8"
         d="m 581.65126,606.8556 q 2.71858,0 5.30123,0 2.58265,-0.13593 4.48566,-0.40779 l 0,-14.68033 q -1.63115,-0.27186 -3.94194,-0.40778 -2.3108,-0.27186 -4.2138,-0.27186 -2.58265,0 -5.02937,0.40778 -2.44673,0.27186 -4.34973,1.08744 -1.76708,0.81557 -2.85451,2.31079 -1.08743,1.49522 -1.08743,3.94194 0,4.34973 3.26229,6.25273 3.2623,1.76708 8.4276,1.76708 z m -1.49522,-53.55602 q 7.88388,0 13.04919,1.903 5.30123,1.76708 8.42759,5.1653 3.12637,3.2623 4.48566,8.15574 1.35929,4.75752 1.35929,10.73839 l 0,38.06013 q -3.67008,0.81557 -10.87432,1.903 -7.20424,1.08743 -16.17555,1.08743 -6.11681,0 -11.14618,-1.08743 -4.89344,-1.08743 -8.4276,-3.53415 -3.53415,-2.58265 -5.43716,-6.5246 -1.903,-4.07787 -1.903,-9.92281 0,-5.57309 2.17486,-9.3791 2.17487,-3.80602 5.84495,-6.11681 3.67008,-2.31079 8.4276,-3.26229 4.75751,-1.08744 9.92281,-1.08744 6.5246,0 11.55397,1.08744 l 0,-2.03894 q 0,-4.75751 -2.99044,-7.88388 -2.99044,-3.2623 -10.3306,-3.2623 -4.75752,0 -9.24318,0.67965 -4.34972,0.67964 -7.0683,1.63115 l -2.3108,-13.45698 q 3.12637,-1.08743 8.83539,-1.903 5.70902,-0.9515 11.82582,-0.9515 z" />
      <path
         id="path4159"
         style="fill:#3771c8"
         d="m 624.06112,556.96966 q 4.48565,-1.22336 11.01025,-2.31079 6.66052,-1.08744 14.40847,-1.08744 7.61202,0 12.6414,2.17487 5.02937,2.03893 7.88388,5.98087 2.99044,3.80602 4.2138,9.24318 1.22336,5.30123 1.22336,11.82582 l 0,36.02118 -16.71927,0 0,-33.84632 q 0,-8.97131 -2.03893,-12.91325 -2.03894,-3.94194 -8.29167,-3.94194 -1.90301,0 -3.80601,0.13593 -1.76708,0.13592 -3.80602,0.40778 l 0,50.1578 -16.71926,0 0,-61.84769 z" />
      <path
         id="path4161"
         style="fill:#3771c8"
         d="m 717.58028,606.8556 q 2.71858,0 5.30123,0 2.58265,-0.13593 4.48565,-0.40779 l 0,-14.68033 q -1.63114,-0.27186 -3.94194,-0.40778 -2.31079,-0.27186 -4.2138,-0.27186 -2.58265,0 -5.02937,0.40778 -2.44672,0.27186 -4.34973,1.08744 -1.76707,0.81557 -2.85451,2.31079 -1.08743,1.49522 -1.08743,3.94194 0,4.34973 3.2623,6.25273 3.26229,1.76708 8.4276,1.76708 z m -1.49522,-53.55602 q 7.88388,0 13.04918,1.903 5.30123,1.76708 8.4276,5.1653 3.12637,3.2623 4.48566,8.15574 1.35929,4.75752 1.35929,10.73839 l 0,38.06013 q -3.67009,0.81557 -10.87432,1.903 -7.20424,1.08743 -16.17555,1.08743 -6.11681,0 -11.14618,-1.08743 -4.89345,-1.08743 -8.4276,-3.53415 -3.53415,-2.58265 -5.43716,-6.5246 -1.90301,-4.07787 -1.90301,-9.92281 0,-5.57309 2.17487,-9.3791 2.17486,-3.80602 5.84494,-6.11681 3.67009,-2.31079 8.4276,-3.26229 4.75752,-1.08744 9.92282,-1.08744 6.52459,0 11.55396,1.08744 l 0,-2.03894 q 0,-4.75751 -2.99043,-7.88388 -2.99044,-3.2623 -10.33061,-3.2623 -4.75751,0 -9.24317,0.67965 -4.34973,0.67964 -7.06831,1.63115 l -2.31079,-13.45698 q 3.12637,-1.08743 8.83538,-1.903 5.70902,-0.9515 11.82583,-0.9515 z" />
      <path
         id="path4163"
         style="fill:#3771c8"
         d="m 814.90542,616.09877 q -0.40779,0.27186 -1.90301,0.95151 -1.35929,0.67964 -3.67008,1.49522 -2.31079,0.67964 -5.70902,1.22336 -3.26229,0.54371 -7.47609,0.54371 -11.55397,0 -16.8552,-6.79645 -5.30123,-6.93238 -5.30123,-20.11749 l 0,-54.23567 -17.67077,0 0,-13.86476 34.39004,0 0,69.32379 q 0,6.52459 2.58265,8.83539 2.58265,2.31079 6.52459,2.31079 5.02937,0 8.4276,-1.35929 3.39822,-1.35929 4.48565,-1.76708 l 2.17487,13.45697 z" />
      <path
         id="path4165"
         style="fill:#3771c8"
         d="m 883.5496,554.93072 q -2.58265,8.97132 -5.02937,17.67077 -2.31079,8.56353 -4.89345,16.8552 -2.58265,8.15574 -5.57308,16.03962 -2.85451,7.88388 -6.25274,15.35998 -2.58265,5.43716 -5.1653,9.3791 -2.44672,3.94194 -5.57309,6.38866 -2.99044,2.58265 -6.79645,3.80602 -3.67008,1.22336 -8.69946,1.22336 -4.21379,0 -7.74795,-0.67965 -3.39822,-0.67964 -5.70902,-1.76708 l 3.12637,-14.00068 q 2.71858,1.22336 4.75752,1.63115 2.17486,0.54371 4.62158,0.54371 4.89345,0 7.88388,-3.26229 2.99044,-3.2623 4.75752,-7.74796 -5.98088,-11.96175 -11.96175,-27.32173 -5.98088,-15.4959 -10.87432,-34.11818 l 17.39891,0 q 1.22336,5.02938 2.71858,10.73839 1.63115,5.70902 3.39822,11.41804 1.76708,5.70902 3.67009,11.28211 2.03893,5.43716 4.07787,10.19467 1.35929,-4.75751 2.85451,-10.19467 1.49521,-5.57309 2.8545,-11.14618 1.35929,-5.70902 2.58266,-11.41804 1.35929,-5.70901 2.44672,-10.87432 l 17.12705,0 z" />
      <path
         id="path4167"
         style="fill:#3771c8"
         d="m 906.79344,568.79548 -14.54441,0 0,-13.86476 14.54441,0 0,-16.03962 16.71927,-2.71858 0,18.7582 26.77801,0 0,13.86476 -26.77801,0 0,25.82651 q 0,3.53416 0.67964,5.70902 0.67965,2.17486 1.90301,3.39822 1.22336,1.22337 2.99043,1.63115 1.76708,0.40779 3.94195,0.40779 2.31079,0 4.21379,-0.13593 2.03894,-0.13593 3.80602,-0.40779 1.903,-0.40778 3.80601,-1.08743 2.03893,-0.67964 4.34973,-1.76708 l 2.31079,14.40848 q -4.62159,1.90301 -10.05875,2.71858 -5.30123,0.81557 -10.3306,0.81557 -5.84495,0 -10.3306,-0.9515 -4.48566,-0.9515 -7.61203,-3.67008 -3.12637,-2.71858 -4.75751,-7.61203 -1.63115,-5.02937 -1.63115,-13.04918 l 0,-26.2343 z" />
      <path
         id="path4169"
         style="fill:#3771c8"
         d="m 993.9239,536.58031 q 0,4.89344 -3.12636,7.74795 -3.12637,2.85451 -7.4761,2.85451 -4.34973,0 -7.47609,-2.85451 -2.99044,-2.85451 -2.99044,-7.74795 0,-5.02937 2.99044,-7.88388 3.12636,-2.85451 7.47609,-2.85451 4.34973,0 7.4761,2.85451 3.12636,2.85451 3.12636,7.88388 z m 24.875,79.51846 q -5.1653,2.44673 -9.7869,3.2623 -4.4856,0.9515 -8.2916,0.9515 -6.52464,0 -11.01029,-1.903 -4.34973,-1.90301 -7.06831,-5.43716 -2.58265,-3.67009 -3.67009,-8.83539 -1.08743,-5.1653 -1.08743,-11.82582 l 0,-23.51572 -17.67077,0 0,-13.86476 34.39004,0 0,39.55534 q 0,5.70902 2.03893,8.56353 2.17487,2.71858 7.06832,2.71858 2.3108,0 5.5731,-0.54372 3.2623,-0.67964 7.3401,-2.58265 l 2.1749,13.45697 z" />
      <path
         id="path4171"
         style="fill:#3771c8"
         d="m 1029.2655,586.87404 q 0,-6.93238 2.1748,-13.04919 2.1749,-6.1168 6.6606,-10.60246 4.4856,-4.62158 11.2821,-7.20423 6.9324,-2.71858 16.4474,-2.71858 5.709,0 10.3306,0.81557 4.6216,0.81557 9.3791,2.71858 l -3.6701,13.45697 q -2.7186,-0.9515 -6.1168,-1.63115 -3.2623,-0.81557 -8.4276,-0.81557 -5.9809,0 -10.0587,1.49522 -3.942,1.35929 -6.3887,3.94194 -2.4467,2.44672 -3.5342,5.98087 -1.0874,3.53416 -1.0874,7.61203 0,8.83538 4.8935,13.86476 5.0293,5.02937 16.9911,5.02937 3.9419,0 8.1557,-0.54372 4.3497,-0.54371 7.8839,-1.76707 l 2.4467,13.72883 q -3.5341,1.35929 -8.5635,2.17486 -5.0294,0.9515 -11.8258,0.9515 -9.7869,0 -16.8552,-2.58265 -6.9324,-2.58265 -11.4181,-7.06831 -4.4856,-4.48565 -6.6605,-10.60246 -2.0389,-6.1168 -2.0389,-13.18511 z" />
      <path
         id="path4173"
         style="fill:#3771c8"
         d="m 1122.2409,606.17596 q 6.1168,0 9.3791,-0.81558 3.2623,-0.9515 3.2623,-3.67008 0,-1.76708 -1.0874,-2.99044 -0.9515,-1.22336 -2.8545,-2.03893 -1.7671,-0.95151 -4.2138,-1.76708 -2.3108,-0.81557 -4.8935,-1.63115 -3.6701,-1.08743 -7.4761,-2.44672 -3.806,-1.49522 -6.9324,-3.67008 -3.1263,-2.17487 -5.1653,-5.43716 -2.0389,-3.39823 -2.0389,-8.4276 0,-4.07787 1.4952,-7.61203 1.6312,-3.67008 4.8935,-6.38866 3.3982,-2.85451 8.5635,-4.34973 5.1653,-1.63114 12.3695,-1.63114 6.2528,0 11.554,0.9515 5.4372,0.9515 9.3791,2.71858 l -2.5827,14.13661 q -2.3108,-0.67964 -7.2042,-2.17486 -4.8934,-1.63115 -11.0102,-1.63115 -6.3887,0 -8.6995,1.63115 -2.1749,1.49522 -2.1749,3.2623 0,1.49522 0.9515,2.71858 1.0875,1.08743 2.7186,2.03893 1.7671,0.9515 3.942,1.90301 2.3108,0.81557 4.8934,1.63115 3.6701,1.22336 7.612,2.71858 3.942,1.49521 7.0683,3.80601 3.2623,2.17486 5.3013,5.70902 2.0389,3.39822 2.0389,8.42759 0,3.94194 -1.4952,7.4761 -1.4952,3.53415 -5.0294,6.1168 -3.3982,2.58266 -8.9713,4.07787 -5.5731,1.49522 -13.7288,1.49522 -8.2917,0 -14.1366,-1.903 -5.845,-1.90301 -9.3791,-3.39823 l 2.5826,-14.00069 q 4.7575,1.90301 10.0587,3.53416 5.4372,1.63115 11.0103,1.63115 z" />
      <path
         id="path4175"
         style="font-style:normal;font-variant:normal;font-weight:normal;font-stretch:normal;font-family:'Ubuntu Mono';-inkscape-font-specification:'Ubuntu Mono';fill:#87aade"
         d="m 1203.2546,610.1179 q 0,4.07787 -2.7186,7.20424 -2.7185,3.12636 -7.2042,3.12636 -4.6216,0 -7.3402,-3.12636 -2.7185,-3.12637 -2.7185,-7.20424 0,-4.2138 2.7185,-7.34017 2.7186,-3.12637 7.3402,-3.12637 4.4857,0 7.2042,3.12637 2.7186,3.12637 2.7186,7.34017 z" />
      <path
         id="path4177"
         style="font-style:normal;font-variant:normal;font-weight:normal;font-stretch:normal;font-family:'Ubuntu Mono';-inkscape-font-specification:'Ubuntu Mono';fill:#87aade"
         d="m 1236.8291,557.51337 q 6.1168,-1.49521 12.0976,-2.31079 6.1168,-0.81557 11.4181,-0.81557 12.6414,0 19.03,6.52459 6.5246,6.52459 6.5246,20.93307 l 0,36.97268 -11.1461,0 0,-34.93375 q 0,-6.1168 -1.0875,-9.92282 -1.0874,-3.80601 -3.1263,-5.84494 -1.9031,-2.17487 -4.7576,-2.99044 -2.7185,-0.81558 -5.9808,-0.81558 -2.7186,0 -5.845,0.40779 -2.9904,0.27186 -5.8449,0.81558 l 0,53.28416 -11.2821,0 0,-61.30398 z" />
      <path
         id="path4179"
         style="font-style:normal;font-variant:normal;font-weight:normal;font-stretch:normal;font-family:'Ubuntu Mono';-inkscape-font-specification:'Ubuntu Mono';fill:#87aade"
         d="m 1357.6699,587.28183 q 0,7.47609 -2.1748,13.5929 -2.039,5.98087 -5.845,10.3306 -3.806,4.34973 -9.1072,6.79645 -5.3013,2.31079 -11.554,2.31079 -6.1168,0 -11.418,-2.31079 -5.1653,-2.44672 -8.9714,-6.79645 -3.806,-4.34973 -5.9808,-10.3306 -2.039,-6.11681 -2.039,-13.5929 0,-7.4761 2.039,-13.5929 2.1748,-6.11681 5.9808,-10.33061 3.8061,-4.34973 8.9714,-6.66052 5.3012,-2.44672 11.418,-2.44672 6.2527,0 11.554,2.44672 5.3012,2.31079 9.1072,6.66052 3.806,4.2138 5.845,10.33061 2.1748,6.1168 2.1748,13.5929 z m -11.5539,0 q 0,-10.7384 -4.6216,-16.8552 -4.6216,-6.25273 -12.5055,-6.25273 -7.748,0 -12.3695,6.25273 -4.4857,6.1168 -4.4857,16.8552 0,10.60246 4.4857,16.85519 4.6215,6.11681 12.3695,6.11681 7.8839,0 12.5055,-6.11681 4.6216,-6.25273 4.6216,-16.85519 z" />
    </g>
  </g>
</svg>
